<?xml version="1.0" encoding="utf-8"?>
<!-- Generator: Adobe Illustrator 24.1.2, SVG Export Plug-In . SVG Version: 6.00 Build 0)  -->
<svg version="1.1" id="Layer_1" xmlns="http://www.w3.org/2000/svg" xmlns:xlink="http://www.w3.org/1999/xlink" x="0px" y="0px"
	 viewBox="0 0 24 24" style="enable-background:new 0 0 24 24;" xml:space="preserve">
<style type="text/css">
	.st0{fill:#FFFFFF;}
</style>
<path class="st0" d="M13,16.7c0-0.4-0.3-0.7-0.8-0.7H2.8C2.3,16,2,16.3,2,16.7s0.3,0.8,0.8,0.8h9.5C12.7,17.5,13,17.2,13,16.7z
	 M22,11.7c0-0.4-0.3-0.8-0.8-0.8H2.8C2.3,11,2,11.3,2,11.7s0.3,0.8,0.8,0.8h18.5C21.7,12.5,22,12.2,22,11.7z M18,6.7
	C18,6.3,17.7,6,17.3,6H2.8C2.3,6,2,6.3,2,6.7s0.3,0.8,0.8,0.8h14.5C17.7,7.5,18,7.2,18,6.7z"/>
</svg>
